PathFileType	4	(X/Y/Z)	C:\Users\WrightLab\Desktop\Jo\P5V12.trc
DataRate	CameraRate	NumFrames	NumMarkers	Units	OrigDataRate	OrigDataStartFrame	OrigNumFrames
100.00	100.00	      12	19	mm	100.00	1299	      2078
Frame#	Time	Headset_Front			Headset_Back			Headset_Left			Headset_Right			Left_Shoulder			Right_Shoulder			Sternum			C7			Left Elbow			Right Elbow			Left Wrist			Right Wrist			Left ASIS			Right ASIS			S2			Left Knee			Right Knee			Left Ankle			Right Ankle			
		X1	Y1	Z1	X2	Y2	Z2	X3	Y3	Z3	X4	Y4	Z4	X5	Y5	Z5	X6	Y6	Z6	X7	Y7	Z7	X8	Y8	Z8	X9	Y9	Z9	X10	Y10	Z10	X11	Y11	Z11	X12	Y12	Z12	X13	Y13	Z13	X14	Y14	Z14	X15	Y15	Z15	X16	Y16	Z16	X17	Y17	Z17	X18	Y18	Z18	X19	Y19	Z19	

1299	12.980	-294.33163	1601.81445	383.32974	-123.29303	1473.05090	430.32080							-354.67056	1524.96289	776.34760	-408.37424	1503.49109	406.74371	-304.66599	1341.00793	552.24579	-139.41240	1559.82751	654.30884	-306.67667	1247.71350	901.04108	30.96697	1230.10876	429.97287	-491.01532	1153.23059	835.91479	-100.33095	1130.99683	261.51251	-381.42233	956.30365	696.64423	-222.79228	970.47974	465.17795	-87.84676	1015.12927	769.09656	-356.30365	521.48914	782.50769	-146.18503	511.87662	464.51337	-247.12917	122.73087	919.26190	-87.57602	115.09651	586.11334	
1300	12.990	-429.48926	1633.93530	574.69519	-123.88127	1472.37134	426.83698							-352.33566	1524.85022	776.17853	-414.64246	1501.68323	412.36465	-304.27127	1340.94958	551.32556	-137.52840	1559.61401	651.66290	-303.94247	1247.79285	900.17108	30.30646	1229.65271	426.63251	-488.48297	1153.05396	836.94714	-102.51329	1129.52209	259.89810	-380.16162	956.66931	696.72803	-221.99419	970.18384	464.02200	-85.12523	1015.72107	767.80304	-356.18057	521.52283	781.29010	-145.55293	511.65811	463.60846	-247.12074	122.83968	918.92786	-87.60400	115.07859	586.11035	
1301	13.000	-428.46365	1634.29724	579.49451	-124.31464	1471.68054	425.87610							-349.68530	1524.55261	775.36438	-420.70322	1499.69946	418.09454	-303.09476	1340.03796	551.02740	-136.88226	1559.91797	649.25989	-299.83691	1247.43152	899.38800	29.45813	1228.95020	423.62952	-485.72147	1153.01196	838.26215	-104.76781	1127.86682	258.66995	-378.76926	956.96637	696.95166	-220.90804	969.01892	463.81030	-82.54630	1014.89838	764.84796	-356.19299	521.64685	780.94806	-146.42844	511.19299	462.83847	-247.09503	122.89357	918.89081	-87.55368	115.09549	586.36084	
1302	13.010	-315.58267	1592.30896	385.02133	-125.30552	1471.11316	421.80536							-346.39047	1524.00061	774.91040	-427.07355	1497.84741	425.06708	-302.47470	1339.73218	550.56311	-135.02341	1559.89331	646.51196	-296.71649	1247.32935	898.99139	28.67798	1228.41602	420.51633	-482.83600	1152.62085	839.48926	-107.32588	1126.02539	257.36154	-375.34723	955.87244	696.90594	-220.32664	968.87836	463.11078	-81.43207	1015.66119	761.17950	-356.23993	521.86462	780.63739	-146.67081	510.99304	462.78876	-247.05933	122.89392	919.14056	-87.63026	115.05621	586.10522	
1303	13.020	-426.45657	1635.13086	589.64716	-126.18155	1470.71265	420.04572							-343.99075	1524.25073	774.76465	-432.88702	1495.76611	431.75757	-300.70486	1338.84387	550.69135	-134.03645	1560.22656	643.81061	-293.02228	1247.32703	898.72650	28.01097	1227.58936	416.93552	-480.04514	1152.61670	841.04291	-108.92807	1124.17871	256.14175	-373.81274	956.56165	696.67010	-219.77504	968.16705	462.47348	-78.42645	1015.41077	757.55682	-355.94116	522.25452	780.04205	-146.88113	510.58490	462.93927	-246.99963	123.01768	918.84778	-87.72460	114.79982	585.82642	
1304	13.030	-425.15375	1634.94910	594.61603	-127.47855	1469.86804	416.30722							-340.59818	1524.05164	774.21289	-438.79160	1493.65588	439.34439	-299.80588	1338.23718	550.31964	-129.97177	1560.19714	640.52258	-288.89435	1246.69751	898.03577	27.13796	1226.98462	413.33127	-476.91705	1152.18750	842.47900	-111.69276	1122.50146	254.21965	-372.52667	956.66516	696.69165	-219.00504	967.90118	461.87015	-76.90534	1015.52307	753.35864	-356.02673	522.53778	779.76007	-146.10181	510.82889	463.71414	-247.77481	123.87650	918.78906	-87.73547	114.77003	585.81555	
1305	13.040	-338.58810	1583.07141	390.11957	-128.73793	1468.85254	414.27835							-338.40771	1524.20569	774.34882	-444.47000	1491.48047	447.49194	-299.19922	1337.62354	550.22498	-129.41348	1560.10547	637.76685	-283.73749	1246.04968	897.59778	26.33402	1226.18262	410.34692	-473.34140	1151.82983	844.09406	-114.01346	1121.18726	253.25330	-370.28702	956.63782	696.85999	-218.21869	967.25311	461.42368	-74.06115	1015.70959	749.12128	-356.12411	522.85638	779.48425	-146.08464	510.73355	463.56061	-247.72900	124.09249	918.37134	-87.74599	114.74467	585.80652	
1306	13.050	-422.23303	1635.87158	604.81274	-130.20129	1468.70508	411.29123							-334.30347	1523.76392	773.74310	-449.69385	1489.57178	455.81198	-298.26169	1336.79199	549.78906	-128.59322	1560.16260	635.00464	-280.75369	1246.06885	895.79968	25.71871	1225.99084	406.45352	-469.99683	1151.22852	846.34271	-116.24437	1119.30188	251.76054	-369.18292	957.52185	697.64709	-217.60123	967.08160	460.84738	-71.14081	1015.16968	744.09534	-356.32217	523.75806	778.51538	-146.18919	510.35355	463.58447	-248.03517	124.52984	918.28833	-87.83616	114.82191	585.56158	
1307	13.060	-420.43845	1636.73987	609.80591	-131.86578	1467.86230	410.06342							-331.68063	1523.59814	773.46411	-455.28690	1487.54565	464.43234	-297.68115	1336.08093	549.81677	-127.71706	1560.37085	631.84406	-276.67178	1245.97302	894.99683	24.43291	1225.51123	403.04752	-466.39819	1150.67004	847.91718	-118.75348	1118.29236	250.28040	-366.59872	957.34216	697.93933	-216.92760	966.39252	460.28644	-68.44952	1015.42639	739.25354	-356.20712	524.35834	777.98358	-146.04478	510.29367	463.45819	-247.82973	124.59854	918.07538	-87.82922	114.80865	585.55481	
1308	13.070	-361.22330	1573.22864	397.51840	-133.91647	1467.52100	405.96027							-328.37872	1523.63904	773.75342	-459.49890	1486.12634	472.99301	-296.96622	1335.46716	549.57404	-126.93400	1560.43677	628.97815	-272.39886	1245.25366	894.27557	21.61572	1225.50403	400.08881	-462.42471	1150.03149	849.51294	-121.30780	1116.48560	248.75639	-364.62961	957.26251	698.40100	-216.39670	966.15820	459.57584	-65.61523	1016.78448	734.95978	-356.31604	524.85675	777.68774	-146.01247	509.96426	463.57376	-247.85898	124.78466	918.17719	-87.69955	114.61049	585.56006	
1309	13.080	-417.53961	1638.33911	619.56067	-135.80743	1467.47510	403.85818							-325.50629	1523.11328	773.72632	-463.48297	1484.43481	482.12543	-296.54230	1334.49573	549.53815	-126.58352	1560.44043	626.50439	-268.16357	1245.52710	893.31207	20.50204	1225.13220	396.31836	-458.87186	1149.53809	852.00092	-124.07002	1115.72998	247.58977	-362.01266	956.88623	698.59253	-215.89677	966.03351	459.28168	-63.07368	1016.23523	730.43640	-356.11002	525.19836	777.29053	-146.00748	509.66754	463.41248	-248.06590	125.19561	917.88239	-87.80437	114.43595	585.44659	
1310	13.090	-415.63651	1638.48206	623.80957	-137.85072	1466.88159	402.65314							-322.41220	1522.48535	773.70624	-467.22891	1482.73328	491.51151	-295.89331	1333.64832	549.25366	-125.70800	1560.32312	623.80133	-263.27713	1244.60352	892.63837	18.96296	1225.13953	392.70969	-454.31680	1148.29175	853.68481	-126.67980	1114.79517	246.29135	-359.82516	956.70197	699.53717	-215.33618	965.23212	458.29794	-60.60857	1015.56097	725.57245	-355.98935	525.60022	777.11151	-146.16711	509.66544	462.43817	-247.93887	125.78548	918.09521	-87.63824	114.49632	585.31665	
